<?xml version="1.0" standalone="no"?>
<!DOCTYPE svg PUBLIC "-//W3C//DTD SVG 20010904//EN"
 "http://www.w3.org/TR/2001/REC-SVG-20010904/DTD/svg10.dtd">
<svg version="1.0" xmlns="http://www.w3.org/2000/svg"
 width="512.000000pt" height="512.000000pt" viewBox="0 0 512.000000 512.000000"
 preserveAspectRatio="xMidYMid meet">
<metadata>
Created by potrace 1.11, written by Peter Selinger 2001-2013
</metadata>
<g transform="translate(0.000000,512.000000) scale(0.100000,-0.100000)"
fill="#000000" stroke="none">
<path d="M435 5113 c-195 -44 -346 -175 -407 -353 l-23 -65 0 -2135 0 -2135
23 -65 c51 -149 165 -266 319 -328 l68 -27 2140 0 2140 0 65 23 c158 54 279
177 336 342 18 53 19 114 19 2190 l0 2135 -23 65 c-51 149 -166 266 -318 327
l-69 28 -2125 1 c-1169 1 -2134 0 -2145 -3z"/>
</g>
</svg>
